<svg width="162" height="56" viewBox="0 0 162 56" fill="none" xmlns="http://www.w3.org/2000/svg">
<g clip-path="url(#clip0_1_2)">
<path d="M55.27 23.196C56.243 24.186 56.243 25.79 55.27 26.779L45.083 37.141C44.9302 37.2978 44.7476 37.4224 44.5458 37.5075C44.3441 37.5926 44.1274 37.6364 43.9085 37.6364C43.6896 37.6364 43.4729 37.5926 43.2711 37.5075C43.0694 37.4224 42.8868 37.2978 42.734 37.141L30.85 25.052C30.383 24.577 30.12 23.932 30.12 23.26V1.693C30.12 0.188003 31.909 -0.565997 32.955 0.499003L55.269 23.197L55.27 23.196ZM10.301 36.504C10.5302 36.7391 10.8041 36.9259 11.1066 37.0535C11.4092 37.1811 11.7342 37.2468 12.0625 37.2468C12.3908 37.2468 12.7158 37.1811 13.0184 37.0535C13.3209 36.9259 13.5948 36.7391 13.824 36.504L25.114 25.019C25.581 24.544 25.843 23.899 25.843 23.227V1.713C25.843 0.208003 24.054 -0.545997 23.008 0.518003L0.729994 23.183C-0.243006 24.173 -0.243006 25.777 0.729994 26.767L10.301 36.504Z" fill="#3C52D9"/>
<path d="M161.922 38.3812C160.894 38.3812 159.898 38.1671 158.933 37.7391C157.968 37.3111 157.118 36.7332 156.384 36.0056C156.006 35.6204 155.628 35.2351 155.251 34.8499C154.873 34.4647 154.496 34.0795 154.118 33.6942C153.321 32.881 152.471 32.2389 151.569 31.7681C150.688 31.2759 149.576 31.0297 148.233 31.0297H147.919V38.0601H141.877V21.7522L141.562 19.184H147.919V26.5996H148.863C149.219 26.5996 149.492 26.5568 149.681 26.4712C149.891 26.3642 150.111 26.1823 150.342 25.9255C150.845 25.369 151.401 24.6949 152.01 23.903C152.639 23.0898 153.247 22.2658 153.835 21.4312C154.443 20.5751 154.957 19.8261 155.377 19.184H163.086L161.796 21.1101C161.272 21.688 160.684 22.3193 160.034 23.0042C159.405 23.689 158.775 24.3632 158.146 25.0266C157.517 25.6687 156.94 26.2572 156.415 26.7922C155.891 27.3273 155.471 27.7446 155.156 28.0442C155.807 28.3224 156.373 28.6435 156.856 29.0073C157.338 29.3497 157.863 29.7456 158.429 30.1951C158.954 30.6017 159.405 30.9762 159.782 31.3187C160.181 31.6611 160.653 32.0463 161.198 32.4743C162.331 33.3732 163.307 33.9403 164.125 34.1758C164.964 34.3898 165.499 34.4968 165.73 34.4968L164.471 38.0601C164.261 38.1243 163.926 38.1885 163.464 38.2527C163.023 38.3384 162.509 38.3812 161.922 38.3812Z" fill="white"/>
<path d="M114.557 38.0601V21.7522L114.242 19.184H120.033L128.907 28.3652L130.134 29.7777H130.48V19.184H136.522V38.0601H131.267L122.141 28.7826L120.914 27.2738H120.599V38.0601H114.557Z" fill="white"/>
<path d="M96.3597 38.0601V30.2593L87.171 19.184H94.7548L97.8702 23.582L99.3177 25.9255H99.6324L101.08 23.582L104.132 19.184H111.716L110.489 21.1101L102.433 30.3877V38.0601H96.3597Z" fill="white"/>
<path d="M64.3134 38.0601V34.3042L76.3972 23.5499H64.3134V19.184H85.114V22.9079L72.7469 33.6621H84.3273L86.2154 37.707C86.2154 37.7926 85.9321 37.8782 85.3657 37.9638C84.7993 38.028 83.8238 38.0601 82.4392 38.0601H64.3134Z" fill="white"/>
<path d="M28.034 31.1821L19.1549 40.24C17.9648 41.4541 17.9648 43.4225 19.1549 44.6366L28.139 53.8017C29.3291 55.0158 31.2587 55.0158 32.4488 53.8017L41.3278 44.7438C42.518 43.5297 42.518 41.5612 41.3278 40.3471L32.3438 31.1821C31.1537 29.968 29.2241 29.968 28.034 31.1821Z" fill="#2EF2FF"/>
</g>
<defs>
<clipPath id="clip0_1_2">
<rect width="162" height="56" fill="white"/>
</clipPath>
</defs>
</svg>
